<svg xmlns="http://www.w3.org/2000/svg" viewBox="0 0 100.71 112.82"><defs><style>.cls-1{fill:#86c3d0;}.cls-2{fill:#fff;}.cls-3{font-size:12px;fill:#1d1d1b;font-family:MyriadPro-Regular, Myriad Pro;}.cls-4{letter-spacing:-0.05em;}.cls-5{letter-spacing:0em;}.cls-6{letter-spacing:-0.01em;}.cls-7{letter-spacing:0em;}.cls-8{letter-spacing:0em;}.cls-9{letter-spacing:0em;}.cls-10{letter-spacing:0.02em;}.cls-11{letter-spacing:-0.03em;}.cls-12{letter-spacing:0em;}.cls-13{letter-spacing:-0.01em;}</style></defs><g id="API"><path class="cls-1" d="M50.35,13.37a43,43,0,1,0,43.05,43A43,43,0,0,0,50.35,13.37Z"/><path class="cls-2" d="M52.46,65.25a.86.86,0,0,1-.84-.65.87.87,0,0,1,.62-1.06A6.16,6.16,0,0,0,55,62a6.09,6.09,0,0,0,1.68-3.17.86.86,0,0,1,1-.69.87.87,0,0,1,.69,1,7.84,7.84,0,0,1-5.73,6.11Z"/><path class="cls-2" d="M56.53,54.67a.87.87,0,0,1-.72-.39,6.09,6.09,0,0,0-8.56-1.67.87.87,0,0,1-1-1.43,7.82,7.82,0,0,1,10,.91,8.47,8.47,0,0,1,1,1.23.87.87,0,0,1-.25,1.2A.85.85,0,0,1,56.53,54.67Z"/><path class="cls-2" d="M48.2,65a.85.85,0,0,1-.31-.06,7.9,7.9,0,0,1-2.72-1.77,7.78,7.78,0,0,1-2.25-6.35.86.86,0,1,1,1.72.17,6.12,6.12,0,0,0,3.88,6.33A.87.87,0,0,1,48.2,65Z"/><circle class="cls-2" cx="57.7" cy="58.8" r="2.12"/><path class="cls-2" d="M48.26,53.39a2.12,2.12,0,1,1,0-3A2.12,2.12,0,0,1,48.26,53.39Z"/><circle class="cls-2" cx="48.25" cy="64.1" r="2.12"/><circle class="cls-2" cx="65.59" cy="70.92" r="2.12"/><circle class="cls-2" cx="64.17" cy="62.11" r="2.12"/><circle class="cls-2" cx="45.01" cy="43.25" r="2.12"/><circle class="cls-2" cx="40.44" cy="67.8" r="2.12"/><path class="cls-2" d="M52.48,36.43a2.13,2.13,0,1,1-2.13-2.13A2.12,2.12,0,0,1,52.48,36.43Z"/><circle class="cls-2" cx="33.93" cy="69.66" r="2.12"/><path class="cls-2" d="M34.06,70.52a.87.87,0,0,1-.69-.33A21.29,21.29,0,0,1,28.88,57,21.58,21.58,0,0,1,41.2,37.6a.87.87,0,0,1,.74,1.57A19.85,19.85,0,0,0,30.61,57a19.54,19.54,0,0,0,4.13,12.08.87.87,0,0,1-.15,1.22A.89.89,0,0,1,34.06,70.52Z"/><path class="cls-2" d="M50.35,78.51a21.39,21.39,0,0,1-11.41-3.28.86.86,0,1,1,.92-1.46A19.78,19.78,0,0,0,65,70.34a.86.86,0,0,1,1.22-.06.88.88,0,0,1,.06,1.23A21.56,21.56,0,0,1,50.35,78.51Z"/><path class="cls-2" d="M69.76,64.87a.79.79,0,0,1-.3-.05.87.87,0,0,1-.52-1.11A19.75,19.75,0,0,0,50.35,37.29a.87.87,0,0,1,0-1.73A21.49,21.49,0,0,1,70.57,64.3.86.86,0,0,1,69.76,64.87Z"/><path class="cls-2" d="M65.06,57.9A.86.86,0,0,1,64.2,57,13.85,13.85,0,0,0,45.26,44.16a.87.87,0,0,1-.64-1.61,15.4,15.4,0,0,1,5.73-1.09A15.6,15.6,0,0,1,65.93,57,.86.86,0,0,1,65.06,57.9Z"/><path class="cls-2" d="M40.33,68.67a.86.86,0,0,1-.6-.24,15.59,15.59,0,0,1,.12-22.9.87.87,0,0,1,1.23.06A.86.86,0,0,1,41,46.81a13.84,13.84,0,0,0-.1,20.35.87.87,0,0,1-.59,1.51Z"/><path class="cls-2" d="M50.35,72.61a15.32,15.32,0,0,1-5.65-1.06.86.86,0,0,1-.5-1.12.87.87,0,0,1,1.13-.49,13.86,13.86,0,0,0,18-8.13.88.88,0,0,1,1.12-.52A.87.87,0,0,1,65,62.41,15.64,15.64,0,0,1,50.35,72.61Z"/></g><g id="HOSTING"><text class="cls-3" transform="translate(17.93 -4.98)"><tspan class="cls-4">T</tspan><tspan class="cls-5" x="5.42" y="0">r</tspan><tspan x="9.29" y="0">ans</tspan><tspan class="cls-6" x="26.48" y="0">f</tspan><tspan x="29.83" y="0">o</tspan><tspan class="cls-7" x="36.42" y="0">r</tspan><tspan class="cls-8" x="40.39" y="0">m </tspan><tspan class="cls-9" x="52.94" y="0">Q</tspan><tspan x="61.25" y="0">ue</tspan><tspan class="cls-10" x="73.87" y="0">r</tspan><tspan x="78.1" y="0">y </tspan><tspan class="cls-11" x="86.29" y="0">P</tspan><tspan x="92.36" y="0">a</tspan><tspan class="cls-5" x="98.15" y="0">r</tspan><tspan class="cls-12" x="102.01" y="0">ame</tspan><tspan class="cls-13" x="123.81" y="0">t</tspan><tspan class="cls-8" x="127.71" y="0">ers</tspan></text><text class="cls-3" transform="translate(-91.03 -4.98)"><tspan class="cls-4">T</tspan><tspan class="cls-5" x="5.42" y="0">r</tspan><tspan x="9.29" y="0">ans</tspan><tspan class="cls-6" x="26.48" y="0">f</tspan><tspan x="29.83" y="0">o</tspan><tspan class="cls-7" x="36.42" y="0">r</tspan><tspan class="cls-8" x="40.39" y="0">m Headers</tspan></text></g></svg>